<?xml version="1.0" encoding="UTF-8"?>
<svg width="40px" height="40px" viewBox="0 0 40 40" version="1.1" xmlns="http://www.w3.org/2000/svg" xmlns:xlink="http://www.w3.org/1999/xlink">
    <title>Bombilla_40x40</title>
    <g id="Bombilla_40x40" stroke="none" stroke-width="1" fill="none" fill-rule="evenodd">
        <g id="Group" transform="translate(3.500000, -1.000000)">
            <g id="shutterstock_330303224-(1)" transform="translate(-0.000000, 0.000000)">
                <polygon id="Fill-26" fill="#49C5B7" points="10.7870109 39.9342674 21.3339935 39.9342674 21.3339935 35.4680304 10.7870109 35.4680304"></polygon>
                <polygon id="Fill-27" fill="#49C5B7" points="10.7870109 35.4680304 21.3339935 35.4680304 21.3339935 33.3468152 10.7870109 33.3468152"></polygon>
                <polygon id="Fill-28" fill="#22A899" points="19.0050152 39.9342674 21.3339935 39.9342674 21.3339935 33.3468152 19.0050152 33.3468152"></polygon>
                <path d="M20.7050891,17.747563 L20.7050891,17.7726978 L17.4695652,33.3468152 L14.6514391,33.3468152 L12.2417087,21.5815087 L12.4424304,21.5815087 C13.4887326,21.5815087 14.334313,20.7340565 14.334313,19.6896261 L14.334313,19.6645804 L16.5002717,19.6645804 C17.5447913,19.6645804 18.3923326,18.8172174 18.3923326,17.7726978 L18.3923326,17.747563 L20.7050891,17.747563" id="Fill-29" fill="#FFCB64"></path>
                <path d="M12.4836087,7.58580217 C11.4014761,7.79721957 10.6723891,8.7933413 10.7690957,9.86825435 L10.5666804,9.89695435 C9.81780652,9.63535652 8.95243913,9.80381304 8.35588913,10.4021457 L8.31649348,10.4415413 C7.48517391,11.2728609 7.48517391,12.6200674 8.31649348,13.4531696 L8.31818696,13.4693022 C7.32563043,13.6484543 6.57328043,14.517387 6.57328043,15.5619065 L6.57328043,15.6192174 C6.57328043,16.7944913 7.52635217,17.747563 8.70162609,17.747563 L8.79476739,17.747563 C7.75033696,17.747563 6.90288478,18.5949261 6.90288478,19.6394457 L6.90288478,19.6896261 C6.90288478,20.7340565 7.75033696,21.5815087 8.79476739,21.5815087 L12.2417087,21.5815087 L14.6514391,33.3468152 L10.7566174,33.3468152 C10.8246239,29.0649 7.65541304,27.667513 5.81183913,25.1933413 C5.34417174,24.6862783 4.91607826,24.1488217 4.52372609,23.5773174 C3.01162826,21.3414804 2.12656304,18.6594565 2.12656304,15.7643217 C2.12656304,8.08386304 8.35410652,1.84927826 16.0452609,1.84927826 C16.0506978,1.84927826 16.0613935,1.85284348 16.0649587,1.85284348 C23.741763,1.86353913 29.9603043,8.09099348 29.9603043,15.7643217 C29.9603043,18.6594565 29.0771109,21.3414804 27.561537,23.5773174 C27.1709674,24.1488217 26.740913,24.6862783 26.2715522,25.1933413 C24.4316326,27.667513 21.2640261,29.0649 21.3339935,33.3468152 L17.4695652,33.3468152 L20.7050891,17.7726978 L20.7050891,17.747563 L24.2525696,17.747563 C25.4276652,17.747563 26.3826087,16.7944913 26.3826087,15.6192174 L26.3826087,15.5619065 C26.3826087,14.4134609 25.4708043,13.4765217 24.3311826,13.4352543 C25.1463696,12.6022413 25.1411109,11.267513 24.3151391,10.4415413 L24.2757435,10.4021457 C23.6254478,9.75185 22.6615913,9.60852826 21.8732326,9.97574565 L21.8554065,9.92556522 C21.9860717,8.82917174 21.2496761,7.80078478 20.1480239,7.58580217 L20.0942783,7.57510652 C19.4563717,7.45148261 18.8293391,7.62876304 18.356413,8.00685435 C18.0374152,7.22928043 17.2743696,6.68103913 16.3819957,6.68103913 L16.3265565,6.68103913 C15.4164457,6.68103913 14.6425261,7.25085 14.3361848,8.05159783 C13.8577326,7.64133043 13.2038717,7.44604565 12.5374435,7.57510652 L12.4836087,7.58580217" id="Fill-30" fill="#FFCB64"></path>
                <path d="M27.6443391,15.7410587 C27.6443391,22.1590739 22.4417065,27.3617957 16.0236913,27.3617957 C9.60567609,27.3617957 4.40304348,22.1590739 4.40304348,15.7410587 C4.40304348,9.32313261 9.60567609,4.12041087 16.0236913,4.12041087 C22.4417065,4.12041087 27.6443391,9.32313261 27.6443391,15.7410587" id="Fill-31" fill="#FFE58A"></path>
                <path d="M24.3311826,13.4352543 C25.4708043,13.4765217 26.3826087,14.4134609 26.3826087,15.5619065 L26.3826087,15.6192174 C26.3826087,16.7944913 25.4276652,17.747563 24.2525696,17.747563 L18.3923326,17.747563 L18.3923326,17.7726978 C18.3923326,18.8172174 17.5447913,19.6645804 16.5002717,19.6645804 L14.334313,19.6645804 L14.334313,19.6896261 C14.334313,20.7340565 13.4887326,21.5815087 12.4424304,21.5815087 L8.79476739,21.5815087 C7.75033696,21.5815087 6.90288478,20.7340565 6.90288478,19.6896261 L6.90288478,19.6394457 C6.90288478,18.5949261 7.75033696,17.747563 8.79476739,17.747563 L8.70162609,17.747563 C7.52635217,17.747563 6.57328043,16.7944913 6.57328043,15.6192174 L6.57328043,15.5619065 C6.57328043,14.517387 7.32563043,13.6484543 8.31818696,13.4693022 L8.31649348,13.4531696 C7.48517391,12.6200674 7.48517391,11.2728609 8.31649348,10.4415413 L8.35588913,10.4021457 C8.95243913,9.80381304 9.81780652,9.63535652 10.5666804,9.89695435 L10.7690957,9.86825435 C10.6723891,8.7933413 11.4014761,7.79721957 12.4836087,7.58580217 L12.5374435,7.57510652 C13.2038717,7.44604565 13.8577326,7.64133043 14.3361848,8.05159783 C14.6425261,7.25085 15.4164457,6.68103913 16.3265565,6.68103913 L16.3819957,6.68103913 C17.2743696,6.68103913 18.0374152,7.22928043 18.356413,8.00685435 C18.8293391,7.62876304 19.4563717,7.45148261 20.0942783,7.57510652 L20.1480239,7.58580217 C21.2496761,7.80078478 21.9860717,8.82917174 21.8554065,9.92556522 L21.8732326,9.97574565 C22.6615913,9.60852826 23.6254478,9.75185 24.2757435,10.4021457 L24.3151391,10.4415413 C25.1411109,11.267513 25.1463696,12.6022413 24.3311826,13.4352543" id="Fill-32" fill="#F3D8E2"></path>
                <path d="M12.5427913,19.6896261 C12.5427913,20.7340565 11.6972109,21.5815087 10.6508196,21.5815087 L12.4424304,21.5815087 C13.4887326,21.5815087 14.334313,20.7340565 14.334313,19.6896261 L14.334313,19.6645804 L12.5427913,19.6645804 L12.5427913,19.6896261" id="Fill-33" fill="#EABCCE"></path>
                <path d="M24.3311826,13.4352543 C25.1463696,12.6022413 25.1411109,11.267513 24.3151391,10.4415413 L24.2757435,10.4021457 C23.6254478,9.75185 22.6615913,9.60852826 21.8732326,9.97574565 L21.8554065,9.92556522 C21.9860717,8.82917174 21.2496761,7.80078478 20.1480239,7.58580217 L20.0942783,7.57510652 C19.643813,7.4877587 19.2000326,7.5530913 18.8108,7.73055 C19.652637,8.10284783 21.2386239,9.66031304 21.1270326,10.5973413 C21.9153913,10.2301239 21.8339261,9.75185 22.4842217,10.4021457 L22.5235283,10.4415413 C23.3495891,11.267513 23.3547587,12.6022413 22.5396609,13.4352543 C23.6791935,13.4765217 24.5909978,14.4134609 24.5909978,15.5619065 L24.5909978,15.6192174 C24.5909978,16.7944913 23.6361435,17.747563 22.4609587,17.747563 L24.2525696,17.747563 C25.4276652,17.747563 26.3826087,16.7944913 26.3826087,15.6192174 L26.3826087,15.5619065 C26.3826087,14.4134609 25.4708043,13.4765217 24.3311826,13.4352543" id="Fill-34" fill="#EABCCE"></path>
                <path d="M16.6007217,17.7726978 C16.6007217,18.8172174 15.7532696,19.6645804 14.70875,19.6645804 L16.5002717,19.6645804 C17.5447913,19.6645804 18.3923326,18.8172174 18.3923326,17.7726978 L18.3923326,17.747563 L16.6007217,17.747563 L16.6007217,17.7726978" id="Fill-35" fill="#EABCCE"></path>
                <path d="M21.3338152,33.7051196 C21.1387978,33.7051196 20.9790761,33.5485174 20.9756891,33.3525196 C20.923013,30.1239478 22.6145304,28.4656761 24.2503413,26.8620413 C24.8837913,26.2410696 25.4819457,25.6545913 25.9840174,24.9795174 C25.9915043,24.9692674 25.9997935,24.9592848 26.0085283,24.949837 C26.4671043,24.4545391 26.8901174,23.9247478 27.2656239,23.3751696 C28.7938543,21.1207043 29.602,18.4885935 29.602,15.7643217 C29.602,8.30143043 23.5290087,2.22157609 16.0644239,2.21114783 C16.0498957,2.21114783 16.03305,2.20972174 16.0164717,2.20758261 C8.55242174,2.2230913 2.48486739,8.29866739 2.48486739,15.7643217 C2.48486739,18.4850283 3.29256739,21.1172283 4.82053043,23.3765065 C5.20040435,23.9299174 5.62297174,24.4600652 6.0753087,24.9503717 C6.08377609,24.9595522 6.0917087,24.9692674 6.09919565,24.97925 C6.6018913,25.6538783 7.20058043,26.2401783 7.83438696,26.8607043 C9.44720217,28.4399174 11.1141196,30.0719848 11.1159913,33.204563 C11.134887,33.2480587 11.1453152,33.2961891 11.1453152,33.3468152 C11.1453152,33.5445957 10.9849696,33.7051196 10.7870109,33.7051196 L10.7566174,33.7051196 C10.6605348,33.7051196 10.5686413,33.6666152 10.5012587,33.598163 C10.4338761,33.5296217 10.3967978,33.4370152 10.3984022,33.3410217 C10.44475,30.4195935 8.93327609,28.9395826 7.33302826,27.3726696 C6.71187826,26.7645326 6.06969348,26.1357174 5.53580217,25.4224957 C5.06528261,24.9109761 4.62542391,24.3585457 4.2282587,23.7800891 C2.61847391,21.3996826 1.7682587,18.6286174 1.7682587,15.7643217 C1.7682587,7.89392609 8.17281522,1.49097391 16.0452609,1.49097391 C16.0596109,1.49097391 16.0769913,1.49231087 16.0941935,1.49462826 C23.9407913,1.5211 30.3186087,7.91638696 30.3186087,15.7643217 C30.3186087,18.6325391 29.4677696,21.4037826 27.8580739,23.7783957 C27.4655435,24.3528413 27.0248826,24.9055391 26.5474109,25.4225848 C26.0143217,26.1362522 25.3727609,26.7652457 24.7519674,27.3737391 C23.1538587,28.9402957 21.644613,30.4201283 21.6922978,33.3410217 C21.6955065,33.538713 21.5377457,33.7017326 21.339787,33.7051196 C21.3378261,33.7051196 21.3359543,33.7051196 21.3338152,33.7051196" id="Fill-36" fill="#000000"></path>
                <path d="M11.1453152,39.575963 L20.9756891,39.575963 L20.9756891,33.7051196 L11.1453152,33.7051196 L11.1453152,39.575963 Z M21.3339935,40.2925717 L10.7870109,40.2925717 C10.5891413,40.2925717 10.4287065,40.1322261 10.4287065,39.9342674 L10.4287065,33.3468152 C10.4287065,33.1489457 10.5891413,32.9884217 10.7870109,32.9884217 L21.3339935,32.9884217 C21.531863,32.9884217 21.6922978,33.1489457 21.6922978,33.3468152 L21.6922978,39.9342674 C21.6922978,40.1322261 21.531863,40.2925717 21.3339935,40.2925717 L21.3339935,40.2925717 Z" id="Fill-37" fill="#000000"></path>
                <path d="M22.4304761,35.8262457 L9.69061739,35.8262457 C9.4926587,35.8262457 9.33231304,35.6658109 9.33231304,35.4680304 C9.33231304,35.2700717 9.4926587,35.109637 9.69061739,35.109637 L22.4304761,35.109637 C22.6283457,35.109637 22.7887804,35.2700717 22.7887804,35.4680304 C22.7887804,35.6658109 22.6283457,35.8262457 22.4304761,35.8262457" id="Fill-38" fill="#000000"></path>
                <path d="M22.4304761,38.1714457 L9.69061739,38.1714457 C9.4926587,38.1714457 9.33231304,38.0110109 9.33231304,37.8131413 C9.33231304,37.6151826 9.4926587,37.454837 9.69061739,37.454837 L22.4304761,37.454837 C22.6283457,37.454837 22.7887804,37.6151826 22.7887804,37.8131413 C22.7887804,38.0110109 22.6283457,38.1714457 22.4304761,38.1714457" id="Fill-39" fill="#000000"></path>
                <path d="M16.5002717,20.0228848 L9.95043261,20.0228848 C9.75247391,20.0228848 9.59212826,19.86245 9.59212826,19.6645804 C9.59212826,19.4667109 9.75247391,19.3062761 9.95043261,19.3062761 L16.5002717,19.3062761 C17.3460304,19.3062761 18.0339391,18.6183674 18.0339391,17.7726978 C18.0339391,17.5748283 18.194463,17.4143935 18.3923326,17.4143935 C18.590113,17.4143935 18.750637,17.5748283 18.750637,17.7726978 C18.750637,19.0134826 17.7411457,20.0228848 16.5002717,20.0228848" id="Fill-40" fill="#000000"></path>
                <path d="M12.4424304,21.939813 L8.79476739,21.939813 C7.55398261,21.939813 6.54458043,20.9304109 6.54458043,19.6896261 L6.54458043,19.6394457 C6.54458043,18.3986609 7.55398261,17.3892587 8.79476739,17.3892587 C8.99272609,17.3892587 9.15307174,17.5496935 9.15307174,17.747563 C9.15307174,17.9454326 8.99272609,18.1058674 8.79476739,18.1058674 C7.94918696,18.1058674 7.26118913,18.7937761 7.26118913,19.6394457 L7.26118913,19.6896261 C7.26118913,20.5352957 7.94918696,21.2232043 8.79476739,21.2232043 L12.4424304,21.2232043 C13.2880109,21.2232043 13.9760087,20.5352957 13.9760087,19.6896261 C13.9760087,19.4917565 14.1364435,19.3313217 14.334313,19.3313217 C14.5321826,19.3313217 14.6926174,19.4917565 14.6926174,19.6896261 C14.6926174,20.9304109 13.6832152,21.939813 12.4424304,21.939813" id="Fill-41" fill="#000000"></path>
                <path d="M24.2525696,18.1058674 L14.3325304,18.1058674 C14.1346609,18.1058674 13.9742261,17.9454326 13.9742261,17.747563 C13.9742261,17.5496935 14.1346609,17.3892587 14.3325304,17.3892587 L24.2525696,17.3892587 C25.2295283,17.3892587 26.0242152,16.5951957 26.0242152,15.6192174 L26.0242152,15.5619065 C26.0242152,14.6048239 25.2748957,13.8280522 24.3182587,13.7933804 C24.2884,13.7914196 24.2705739,13.7917761 24.2525696,13.7917761 L21.652813,13.7917761 C21.4549435,13.7917761 21.2945087,13.6313413 21.2945087,13.4334717 C21.2945087,13.2356022 21.4549435,13.0751674 21.652813,13.0751674 L24.2525696,13.0751674 C24.2882217,13.0751674 24.3240522,13.0755239 24.3574761,13.0779304 C25.6881935,13.1257935 26.740913,14.2171957 26.740913,15.5619065 L26.740913,15.6192174 C26.740913,16.9904 25.6246435,18.1058674 24.2525696,18.1058674" id="Fill-42" fill="#000000"></path>
                <path d="M10.7619652,18.1058674 L8.70162609,18.1058674 C7.33053261,18.1058674 6.21497609,16.9904 6.21497609,15.6192174 L6.21497609,15.5619065 C6.21497609,14.3583783 7.07276739,13.3300804 8.25454783,13.1167022 C8.40018696,13.0893391 8.5514413,13.0751674 8.70162609,13.0751674 L10.1097978,13.0751674 C10.3076674,13.0751674 10.4681022,13.2356022 10.4681022,13.4334717 C10.4681022,13.6313413 10.3076674,13.7917761 10.1097978,13.7917761 L8.70162609,13.7917761 C8.59573913,13.7917761 8.48913913,13.8017587 8.3845,13.8214565 C7.54150435,13.9736022 6.93158478,14.705363 6.93158478,15.5619065 L6.93158478,15.6192174 C6.93158478,16.5951957 7.72564783,17.3892587 8.70162609,17.3892587 L10.7619652,17.3892587 C10.9598348,17.3892587 11.1202696,17.5496935 11.1202696,17.747563 C11.1202696,17.9454326 10.9598348,18.1058674 10.7619652,18.1058674" id="Fill-43" fill="#000000"></path>
                <path d="M14.3347587,8.41034783 C14.2431326,8.41034783 14.1515957,8.37558696 14.0818957,8.30588696 C13.9712848,8.19518696 13.947487,8.03091957 14.0114826,7.89766957 C14.3846717,6.9544913 15.31145,6.32273478 16.3265565,6.32273478 L16.3819957,6.32273478 C17.397013,6.32273478 18.3022217,6.93033696 18.6879783,7.87075217 C18.7056261,7.91398043 18.7147174,7.96015 18.7147174,8.00685435 C18.7147174,8.20472391 18.5542826,8.36596087 18.356413,8.36596087 C18.199187,8.36596087 18.0654913,8.26515435 18.0171826,8.12432826 C17.7381152,7.46449565 17.0985152,7.03943261 16.3819957,7.03943261 L16.3265565,7.03943261 C15.5972022,7.03943261 14.9316652,7.49756304 14.6708696,8.17967826 C14.6527761,8.22665 14.6250565,8.26934348 14.5894935,8.30490652 C14.5193478,8.3751413 14.4270087,8.41034783 14.3347587,8.41034783" id="Fill-44" fill="#000000"></path>
                <path d="M22.4572152,18.0790391 C22.2593457,18.0790391 22.0989109,17.9186043 22.0989109,17.7207348 C22.0989109,16.7435978 21.3040457,15.9488217 20.3271761,15.9488217 L18.9547457,15.9488217 C18.7568761,15.9488217 18.5965304,15.788387 18.5965304,15.5905174 C18.5965304,15.3926478 18.7568761,15.232213 18.9547457,15.232213 L20.3271761,15.232213 C21.6993391,15.232213 22.8155196,16.3484826 22.8155196,17.7207348 C22.8155196,17.9186043 22.6551739,18.0790391 22.4572152,18.0790391" id="Fill-45" fill="#000000"></path>
                <path d="M12.766687,17.6634239 C12.5688174,17.6634239 12.4083826,17.5029891 12.4083826,17.3051196 C12.4083826,16.3290522 11.6135174,15.5349891 10.6364696,15.5349891 L10.5809413,15.5349891 C10.3830717,15.5349891 10.222637,15.3745543 10.222637,15.1765957 C10.222637,14.9788152 10.3830717,14.8182913 10.5809413,14.8182913 L10.6364696,14.8182913 C12.0086326,14.8182913 13.1249913,15.933937 13.1249913,17.3051196 C13.1249913,17.5029891 12.9645565,17.6634239 12.766687,17.6634239" id="Fill-46" fill="#000000"></path>
                <path d="M16.3819957,18.0162913 C16.1841261,18.0162913 16.0236913,17.8558565 16.0236913,17.657987 L16.0236913,15.5619065 C16.0236913,14.1906348 17.1401391,13.0751674 18.5123022,13.0751674 C18.7101717,13.0751674 18.8706065,13.2356022 18.8706065,13.4334717 C18.8706065,13.6313413 18.7101717,13.7917761 18.5123022,13.7917761 C17.5351652,13.7917761 16.7403,14.5858391 16.7403,15.5619065 L16.7403,17.657987 C16.7403,17.8558565 16.5799543,18.0162913 16.3819957,18.0162913" id="Fill-47" fill="#000000"></path>
                <path d="M12.2040957,13.7917761 L10.1097978,13.7917761 C9.91192826,13.7917761 9.75149348,13.6313413 9.75149348,13.4334717 C9.75149348,13.2356022 9.91192826,13.0751674 10.1097978,13.0751674 L12.2040957,13.0751674 C13.1811435,13.0751674 13.9760087,12.2803022 13.9760087,11.3033435 C13.9760087,11.1054739 14.1364435,10.9450391 14.334313,10.9450391 C14.5321826,10.9450391 14.6926174,11.1054739 14.6926174,11.3033435 C14.6926174,12.6754174 13.5762587,13.7917761 12.2040957,13.7917761" id="Fill-48" fill="#000000"></path>
                <path d="M24.3153174,13.8110283 C24.2236022,13.8110283 24.1319761,13.7761783 24.062187,13.7062109 C23.9239457,13.5680587 23.9218957,13.3453217 24.0566609,13.2050304 C24.0625435,13.1980783 24.0687826,13.1912152 24.0750217,13.1847087 C24.7504522,12.4944826 24.7444804,11.3775891 24.0618304,10.6949391 L24.0220783,10.655187 C23.4975457,10.1308326 22.694837,9.9884913 22.0245761,10.300537 C21.8363326,10.3877065 21.6659152,10.5070522 21.5173348,10.6555435 C21.3774,10.7953891 21.1502957,10.7954783 21.0106283,10.6554543 C20.8706935,10.5155196 20.8706935,10.2885935 21.0106283,10.1487478 C21.2190152,9.94053913 21.4585978,9.77288478 21.7226022,9.65059783 C22.6641761,9.21189783 23.7923,9.41208478 24.5290522,10.148837 L24.5688043,10.1885 C25.5235696,11.1432652 25.5359587,12.703137 24.5990196,13.6736783 C24.5893043,13.6852652 24.5793217,13.6957826 24.5691609,13.7060326 C24.4990152,13.7760891 24.4071217,13.8110283 24.3153174,13.8110283" id="Fill-49" fill="#000000"></path>
                <path d="M16.6438609,10.9558239 C16.5244261,10.9558239 16.4077543,10.8961065 16.3396587,10.7872783 C16.2348413,10.6195348 16.2858239,10.3984913 16.4536565,10.2935848 C16.8563478,10.0417913 17.1378217,9.64854783 17.2461152,9.18622826 C17.3558348,8.61998261 17.671713,8.09714348 18.1321609,7.72743043 C18.7066957,7.26831957 19.4451413,7.08453261 20.1625522,7.2233087 L20.2183478,7.23453913 C21.4881891,7.48223261 22.3643413,8.68308696 22.2112152,9.9679913 C22.187863,10.1645239 22.0083543,10.30535 21.8129804,10.2813739 C21.6163587,10.2578435 21.4762457,10.0795826 21.4995087,9.88313913 C21.6086043,8.96875 20.9847804,8.11416739 20.0793935,7.93751087 L20.0239543,7.9264587 C19.516,7.82823696 18.9894174,7.95916957 18.5802196,8.28672391 C18.2523087,8.54992609 18.0271652,8.92284783 17.9466804,9.33641304 C17.79195,9.99749348 17.397637,10.5484978 16.8335304,10.901187 C16.774437,10.9381761 16.708837,10.9557348 16.6438609,10.9558239" id="Fill-50" fill="#000000"></path>
                <path d="M8.31649348,13.811563 C8.2246,13.811563 8.13288478,13.7764457 8.06273913,13.7063 C7.09398043,12.735313 7.0941587,11.1570804 8.06309565,10.1882326 L8.10213478,10.1491043 C8.77257391,9.47679348 9.78607609,9.24487609 10.6848674,9.55870435 C11.0327435,9.68036739 11.3564652,9.88429783 11.6208261,10.148837 C11.7607609,10.2886826 11.7607609,10.5156087 11.6208261,10.6554543 C11.4810696,10.7954783 11.2539652,10.7954783 11.1141196,10.6554543 C10.9254304,10.4667652 10.6952065,10.3214826 10.4484043,10.2352043 C9.8083587,10.0115761 9.08666957,10.1764674 8.60964348,10.6550978 L8.5701587,10.6946717 C7.87993261,11.3848087 7.88011087,12.5085652 8.5701587,13.2001283 C8.70982609,13.3402413 8.7095587,13.5671674 8.56953478,13.7069239 C8.49965652,13.7766239 8.40803043,13.811563 8.31649348,13.811563" id="Fill-51" fill="#000000"></path>
                <path d="M10.76865,10.2265587 C10.5853087,10.2265587 10.4289739,10.0865348 10.4122174,9.9003413 C10.2975065,8.62577609 11.1585065,7.4795587 12.4149783,7.23418261 L12.4671196,7.22375435 C13.2218761,7.07713478 13.9873283,7.28035217 14.56935,7.77966087 C14.7710522,7.95382174 14.9420935,8.15721739 15.0787304,8.38512391 C15.1805174,8.55482826 15.1254348,8.7748913 14.9556413,8.87667826 C14.7861152,8.97819783 14.5658739,8.92338261 14.464087,8.75358913 C14.3666674,8.59119348 14.2448261,8.44617826 14.10195,8.32273261 C13.6877609,7.96763696 13.141837,7.82324565 12.6055391,7.92690435 L12.5538435,7.93715435 C11.6574587,8.11229565 11.0443304,8.92846304 11.126063,9.83616739 C11.1437109,10.0332348 10.9983391,10.2073957 10.8012717,10.2252217 C10.7903087,10.226113 10.7794348,10.2265587 10.76865,10.2265587" id="Fill-52" fill="#000000"></path>
                <path d="M14.6510826,33.7051196 C14.4844087,33.7051196 14.3351152,33.5882696 14.3003543,33.4186543 L11.890713,21.6533478 C11.8509609,21.4595783 11.9760109,21.2701761 12.1698696,21.2304239 C12.3643522,21.1916522 12.5531304,21.3158109 12.5927935,21.5095804 L15.0024348,33.274887 C15.042187,33.4687457 14.917137,33.6580587 14.7232783,33.6977217 C14.6991239,33.7028022 14.6748804,33.7051196 14.6510826,33.7051196" id="Fill-53" fill="#000000"></path>
                <path d="M17.4699217,33.7051196 C17.4456783,33.7051196 17.4212565,33.7026239 17.3966565,33.6975435 C17.2029761,33.6573457 17.0784609,33.4676761 17.1187478,33.2738174 L20.3542717,17.6997891 C20.3944696,17.5060196 20.5831587,17.3810587 20.7779978,17.4218804 C20.9716783,17.4621674 21.0961043,17.6517478 21.0558174,17.8455174 L17.8203826,33.4197239 C17.7851761,33.5888043 17.6360609,33.7051196 17.4699217,33.7051196" id="Fill-54" fill="#000000"></path>
            </g>
        </g>
    </g>
</svg>