<?xml version="1.0" encoding="UTF-8"?>
<svg width="40px" height="40px" viewBox="0 0 40 40" version="1.1" xmlns="http://www.w3.org/2000/svg" xmlns:xlink="http://www.w3.org/1999/xlink">
    <title>Cerebro_40x40</title>
    <g id="Cerebro_40x40" stroke="none" stroke-width="1" fill="none" fill-rule="evenodd">
        <g id="Group" transform="translate(0.000000, 2.000000)">
            <g id="shutterstock_328295651-(1)" transform="translate(0.000000, -0.000000)">
                <path d="M34.4410526,15.3503158 C36.6164211,15.4322105 38.3557895,17.2203158 38.3557895,19.4135789 L38.3557895,19.5196842 C38.3557895,21.7658947 36.5344211,23.5872632 34.2883158,23.5872632 L23.0993684,23.5872632 L23.0993684,23.6336842 C23.0993684,25.6297895 21.4816842,27.2473684 19.4856842,27.2473684 L15.3493684,27.2473684 L15.3493684,27.2961053 C15.3493684,29.2898947 13.7341053,30.9098947 11.7378947,30.9098947 L4.77368421,30.9098947 C2.77757895,30.9098947 1.15978947,29.2898947 1.15978947,27.2961053 L1.15978947,27.2011579 C1.15978947,25.2047368 2.77757895,23.5872632 4.77368421,23.5872632 L4.59431579,23.5872632 C2.34810526,23.5872632 0.526842105,21.7658947 0.526842105,19.5196842 L0.526842105,19.4135789 C0.526842105,17.4195789 1.96526316,15.7576842 3.864,15.4145263 L3.85968421,15.3857895 C2.27084211,13.7967368 2.27084211,11.2231579 3.85968421,9.63421053 L3.93484211,9.55884211 C5.17410526,8.31757895 7.01757895,8.04536842 8.52021053,8.74473684 L8.55557895,8.66484211 C8.29884211,6.56484211 9.70631579,4.59526316 11.8153684,4.18357895 L11.9192632,4.16368421 C13.1917895,3.91589474 14.4398947,4.28978947 15.3516842,5.07105263 C15.936,3.53968421 17.4187368,2.45305263 19.1537895,2.45305263 L19.2598947,2.45305263 C20.9638947,2.45305263 22.4245263,3.502 23.0285263,4.99147368 C23.9293684,4.26547368 25.1265263,3.92705263 26.3481053,4.16368421 L26.4521053,4.18357895 C28.5944211,4.60189474 30.0127368,6.63115789 29.6962105,8.76894737 C31.2078947,8.04094737 33.0778947,8.30421053 34.3326316,9.55884211 L34.4078947,9.63421053 C35.9856842,11.2122105 35.9967368,13.7591579 34.4410526,15.3503158" id="Fill-29" fill="#FEE4E1"></path>
                <path d="M3.37284211,27.2961053 L3.37284211,27.2011579 C3.37284211,25.2047368 4.99052632,23.5872632 6.98673684,23.5872632 L6.80736842,23.5872632 C4.56115789,23.5872632 2.73989474,21.7658947 2.73989474,19.5196842 L2.73989474,19.4135789 C2.73989474,17.4195789 4.17831579,15.7576842 6.07694737,15.4145263 L6.07252632,15.3857895 C4.48368421,13.7967368 4.48368421,11.2231579 6.07252632,9.63421053 L6.14789474,9.55884211 C6.65768421,9.04821053 7.27010526,8.70442105 7.91852632,8.52189474 C6.54821053,8.13336842 5.01294737,8.47894737 3.93484211,9.55884211 L3.85968421,9.63421053 C2.27084211,11.2231579 2.27084211,13.7967368 3.85968421,15.3857895 L3.864,15.4145263 C1.96526316,15.7576842 0.526842105,17.4195789 0.526842105,19.4135789 L0.526842105,19.5196842 C0.526842105,21.7658947 2.34810526,23.5872632 4.59431579,23.5872632 L4.77368421,23.5872632 C2.77757895,23.5872632 1.15978947,25.2047368 1.15978947,27.2011579 L1.15978947,27.2961053 C1.15978947,29.2898947 2.77757895,30.9098947 4.77368421,30.9098947 L6.98673684,30.9098947 C4.99052632,30.9098947 3.37284211,29.2898947 3.37284211,27.2961053" id="Fill-30" fill="#FDC9C2"></path>
                <path d="M13.1365263,27.2961053 C13.1365263,29.2898947 11.5210526,30.9098947 9.52484211,30.9098947 L11.7378947,30.9098947 C13.7341053,30.9098947 15.3493684,29.2898947 15.3493684,27.2961053 L15.3493684,27.2473684 L13.1365263,27.2473684 L13.1365263,27.2961053" id="Fill-31" fill="#FDC9C2"></path>
                <path d="M34.4410526,15.3503158 C35.9967368,13.7591579 35.9856842,11.2122105 34.4078947,9.63421053 L34.3326316,9.55884211 C33.2535789,8.48 31.7201053,8.13610526 30.3503158,8.52347368 C30.9978947,8.70589474 31.6098947,9.04926316 32.1195789,9.55884211 L32.1949474,9.63421053 C33.7726316,11.2122105 33.7836842,13.7591579 32.2282105,15.3503158 C34.4034737,15.4322105 36.1428421,17.2203158 36.1428421,19.4135789 L36.1428421,19.5196842 C36.1428421,21.7658947 34.3215789,23.5872632 32.0753684,23.5872632 L34.2883158,23.5872632 C36.5344211,23.5872632 38.3557895,21.7658947 38.3557895,19.5196842 L38.3557895,19.4135789 C38.3557895,17.2203158 36.6164211,15.4322105 34.4410526,15.3503158" id="Fill-32" fill="#FDC9C2"></path>
                <path d="M20.8865263,23.6336842 C20.8865263,25.6297895 19.2687368,27.2473684 17.2726316,27.2473684 L19.4856842,27.2473684 C21.4816842,27.2473684 23.0993684,25.6297895 23.0993684,23.6336842 L23.0993684,23.5872632 L20.8865263,23.5872632 L20.8865263,23.6336842" id="Fill-33" fill="#FDC9C2"></path>
                <path d="M19.4856842,27.6702105 L6.98,27.6702105 C6.74652632,27.6702105 6.55715789,27.4808421 6.55715789,27.2473684 C6.55715789,27.0137895 6.74652632,26.8244211 6.98,26.8244211 L19.4856842,26.8244211 C21.2450526,26.8244211 22.6766316,25.3930526 22.6766316,23.6336842 C22.6766316,23.4001053 22.866,23.2108421 23.0993684,23.2108421 C23.3328421,23.2108421 23.5222105,23.4001053 23.5222105,23.6336842 C23.5222105,25.8593684 21.7114737,27.6702105 19.4856842,27.6702105" id="Fill-34" fill="#000000"></path>
                <path d="M11.7378947,31.3327368 L4.77368421,31.3327368 C2.54789474,31.3327368 0.736947368,29.5218947 0.736947368,27.2961053 L0.736947368,27.2011579 C0.736947368,24.9751579 2.54789474,23.1644211 4.77368421,23.1644211 C5.00715789,23.1644211 5.19652632,23.3536842 5.19652632,23.5872632 C5.19652632,23.8206316 5.00715789,24.01 4.77368421,24.01 C3.01410526,24.01 1.58263158,25.4415789 1.58263158,27.2011579 L1.58263158,27.2961053 C1.58263158,29.0556842 3.01410526,30.4870526 4.77368421,30.4870526 L11.7378947,30.4870526 C13.4961053,30.4870526 14.9266316,29.0556842 14.9266316,27.2961053 C14.9266316,27.0625263 15.116,26.8731579 15.3493684,26.8731579 C15.5829474,26.8731579 15.7722105,27.0625263 15.7722105,27.2961053 C15.7722105,29.5218947 13.9624211,31.3327368 11.7378947,31.3327368" id="Fill-35" fill="#000000"></path>
                <path d="M19.1890526,11.2806316 C23.7707368,11.2806316 27.6111579,8.77810526 28.6474737,5.40810526 C28.0824211,4.79957895 27.3297895,4.35494737 26.4521053,4.18357895 L26.3481053,4.16368421 C25.1265263,3.92705263 23.9293684,4.26547368 23.0285263,4.99147368 C22.4245263,3.502 20.9638947,2.45305263 19.2598947,2.45305263 L19.1537895,2.45305263 C17.4187368,2.45305263 15.936,3.53968421 15.3516842,5.07105263 C14.4398947,4.28978947 13.1917895,3.91589474 11.9192632,4.16368421 L11.8153684,4.18357895 C10.9810526,4.34631579 10.2593684,4.75568421 9.70421053,5.31768421 C10.6992632,8.73326316 14.5664211,11.2806316 19.1890526,11.2806316" id="Fill-36" fill="#FEEBE9"></path>
                <path d="M34.2883158,24.01 L15.3451579,24.01 C15.1116842,24.01 14.9224211,23.8206316 14.9224211,23.5872632 C14.9224211,23.3536842 15.1116842,23.1644211 15.3451579,23.1644211 L34.2883158,23.1644211 C36.2978947,23.1644211 37.9329474,21.5294737 37.9329474,19.5196842 L37.9329474,19.4135789 C37.9329474,17.4461053 36.3923158,15.8469474 34.4251579,15.7728421 C34.3781053,15.7708421 34.3332632,15.7711579 34.2883158,15.7709474 L29.3246316,15.7709474 C29.0911579,15.7709474 28.9017895,15.5816842 28.9017895,15.3482105 C28.9017895,15.1146316 29.0911579,14.9252632 29.3246316,14.9252632 L34.2883158,14.9252632 C34.3452632,14.9252632 34.402,14.9253684 34.4590526,14.9278947 C36.8802105,15.0190526 38.7785263,16.9894737 38.7785263,19.4135789 L38.7785263,19.5196842 C38.7785263,21.9956842 36.7643158,24.01 34.2883158,24.01" id="Fill-37" fill="#000000"></path>
                <path d="M8.52694737,24.01 L4.59431579,24.01 C2.11831579,24.01 0.104,21.9956842 0.104,19.5196842 L0.104,19.4135789 C0.104,17.2410526 1.65368421,15.3843158 3.78894737,14.9984211 C4.04810526,14.9501053 4.31989474,14.9252632 4.59431579,14.9252632 L7.28084211,14.9252632 C7.51442105,14.9252632 7.70368421,15.1146316 7.70368421,15.3482105 C7.70368421,15.5816842 7.51442105,15.7709474 7.28084211,15.7709474 L4.59431579,15.7709474 C4.37178947,15.7709474 4.15221053,15.7908421 3.94157895,15.8302105 C2.20694737,16.1435789 0.949578947,17.6504211 0.949578947,19.4135789 L0.949578947,19.5196842 C0.949578947,21.5294737 2.58473684,23.1644211 4.59431579,23.1644211 L8.52694737,23.1644211 C8.76042105,23.1644211 8.94968421,23.3536842 8.94968421,23.5872632 C8.94968421,23.8206316 8.76042105,24.01 8.52694737,24.01" id="Fill-38" fill="#000000"></path>
                <path d="M15.3493684,5.49831579 C15.116,5.49831579 14.9266316,5.30894737 14.9266316,5.07547368 C14.9266316,5.01694737 14.9389474,4.95915789 14.9621053,4.906 C15.6255789,3.18526316 17.308,2.03031579 19.1537895,2.03031579 L19.2598947,2.03031579 C21.0968421,2.03031579 22.7301053,3.13021053 23.4204211,4.83263158 C23.5082105,5.04894737 23.4038947,5.29557895 23.1875789,5.38326316 C22.9714737,5.47073684 22.7245263,5.36663158 22.6367368,5.15031579 C22.0765263,3.76863158 20.7508421,2.87589474 19.2598947,2.87589474 L19.1537895,2.87589474 C17.6512632,2.87589474 16.2821053,3.81863158 15.7467368,5.22168421 L15.7466316,5.22168421 C15.7423158,5.23305263 15.7374737,5.24421053 15.7322105,5.25526316 C15.6646316,5.39884211 15.5186316,5.49831579 15.3493684,5.49831579" id="Fill-39" fill="#000000"></path>
                <path d="M30.8602105,23.9569474 C30.6267368,23.9569474 30.4373684,23.7675789 30.4373684,23.5342105 C30.4373684,21.5244211 28.8023158,19.8893684 26.7927368,19.8893684 L26.6952632,19.8914737 L24.1727368,19.8915789 C23.9392632,19.8915789 23.7498947,19.7022105 23.7498947,19.4687368 C23.7498947,19.2352632 23.9392632,19.0458947 24.1727368,19.0458947 L26.7841053,19.0438947 C29.2687368,19.0437895 31.2829474,21.0581053 31.2829474,23.5342105 C31.2829474,23.7675789 31.0937895,23.9569474 30.8602105,23.9569474" id="Fill-40" fill="#000000"></path>
                <path d="M12.3552632,23.1667368 C12.1217895,23.1667368 11.9325263,22.9774737 11.9325263,22.744 C11.9325263,20.7343158 10.2984211,19.0992632 8.29,19.0992632 L8.18168421,19.0992632 C7.94810526,19.0992632 7.75884211,18.91 7.75884211,18.6765263 C7.75884211,18.4429474 7.94810526,18.2536842 8.18168421,18.2536842 L8.29,18.2536842 C10.7647368,18.2536842 12.7781053,20.268 12.7781053,22.744 C12.7781053,22.9774737 12.5888421,23.1667368 12.3552632,23.1667368" id="Fill-41" fill="#000000"></path>
                <path d="M19.2598947,23.8396842 C19.0264211,23.8396842 18.8370526,23.6503158 18.8370526,23.4167368 L18.8370526,19.4135789 C18.8370526,16.9387368 20.8503158,14.9252632 23.3250526,14.9252632 C23.5586316,14.9252632 23.7477895,15.1146316 23.7477895,15.3482105 C23.7477895,15.5816842 23.5586316,15.7709474 23.3250526,15.7709474 C21.3167368,15.7709474 19.6826316,17.4050526 19.6826316,19.4135789 L19.6826316,23.4167368 C19.6826316,23.6503158 19.4934737,23.8396842 19.2598947,23.8396842" id="Fill-42" fill="#000000"></path>
                <path d="M11.2842105,15.7709474 L7.28084211,15.7709474 C7.04736842,15.7709474 6.85810526,15.5816842 6.85810526,15.3482105 C6.85810526,15.1146316 7.04736842,14.9252632 7.28084211,14.9252632 L11.2842105,14.9252632 C13.2926316,14.9252632 14.9266316,13.2903158 14.9266316,11.2806316 C14.9266316,11.0471579 15.116,10.8578947 15.3493684,10.8578947 C15.5829474,10.8578947 15.7722105,11.0471579 15.7722105,11.2806316 C15.7722105,13.7566316 13.7589474,15.7709474 11.2842105,15.7709474" id="Fill-43" fill="#000000"></path>
                <path d="M34.4087368,15.806 C34.3012632,15.806 34.1937895,15.7655789 34.1118947,15.6841053 C33.9462105,15.5197895 33.9431579,15.2541053 34.1074737,15.0882105 C34.1075789,15.0881053 34.1114737,15.0844211 34.1114737,15.0842105 C34.1192632,15.0747368 34.1301053,15.0634737 34.1388421,15.0547368 C35.5266316,13.6351579 35.5133684,11.3376842 34.1088421,9.93326316 L34.0332632,9.85736842 C32.9404211,8.76463158 31.2712632,8.47978947 29.8797895,9.14978947 C29.5084211,9.32747368 29.1723158,9.56547368 28.8798947,9.85778947 C28.7148421,10.0230526 28.4472632,10.0230526 28.2821053,9.85778947 C28.1169474,9.69273684 28.1169474,9.42505263 28.2821053,9.26 C28.6424211,8.89957895 29.0569474,8.606 29.5137895,8.38757895 C31.2274737,7.56252632 33.2843158,7.91273684 34.6315789,9.26 L34.7072632,9.33568421 C36.4338947,11.0624211 36.4533684,13.8857895 34.7531579,15.6357895 C34.7393684,15.6515789 34.7253684,15.6662105 34.7113684,15.6802105 C34.6283158,15.7637895 34.5185263,15.806 34.4087368,15.806" id="Fill-44" fill="#000000"></path>
                <path d="M19.7605263,10.3581053 C19.6197895,10.3581053 19.4822105,10.2878947 19.4018947,10.1598947 C19.2778947,9.96210526 19.3374737,9.70115789 19.5354737,9.57694737 C20.3637895,9.05726316 20.9426316,8.24873684 21.1653684,7.30010526 C21.3664211,6.26915789 21.9352632,5.32652632 22.764,4.66168421 C23.7955789,3.83021053 25.1312632,3.49757895 26.4285263,3.74863158 L26.5316842,3.76831579 C28.8933684,4.22947368 30.4665263,6.45294737 30.1145263,8.83084211 C30.0803158,9.06189474 29.8655789,9.22210526 29.6343158,9.18715789 C29.4033684,9.15305263 29.2436842,8.938 29.278,8.70694737 C29.5636842,6.77726316 28.2868421,4.97263158 26.3711579,4.59852632 L26.2686316,4.57894737 C25.2154737,4.37505263 24.1318947,4.64536842 23.2938947,5.32063158 C22.6203158,5.86115789 22.158,6.62705263 21.992,7.47789474 C21.7145263,8.66021053 21.0028421,9.65452632 19.9846316,10.2933684 C19.9148421,10.3371579 19.8372632,10.3581053 19.7605263,10.3581053" id="Fill-45" fill="#000000"></path>
                <path d="M3.85968421,15.8086316 C3.75147368,15.8086316 3.64315789,15.7672632 3.56073684,15.6847368 C1.81021053,13.934 1.81021053,11.0856842 3.56073684,9.33526316 L3.63578947,9.26021053 C4.96263158,7.93073684 6.99747368,7.56978947 8.69863158,8.36136842 C9.17273684,8.57968421 9.60536842,8.88231579 9.98315789,9.25989474 C10.1484211,9.42505263 10.1484211,9.69263158 9.98326316,9.85778947 C9.81810526,10.0230526 9.55042105,10.0229474 9.38536842,9.85789474 C9.07852632,9.55115789 8.72789474,9.30578947 8.34336842,9.12863158 C6.96157895,8.486 5.31105263,8.77884211 4.23410526,9.85757895 L4.15873684,9.93305263 C2.73778947,11.354 2.73789474,13.6658947 4.15852632,15.0869474 C4.32368421,15.252 4.32368421,15.5196842 4.15852632,15.6847368 C4.076,15.7672632 3.96778947,15.8086316 3.85968421,15.8086316" id="Fill-46" fill="#000000"></path>
                <path d="M8.55505263,9.08768421 C8.34442105,9.08768421 8.16210526,8.93063158 8.13589474,8.71621053 C7.85168421,6.39115789 9.43231579,4.218 11.7343158,3.76863158 L11.8396842,3.74842105 C13.1951579,3.48463158 14.5757895,3.84947368 15.6268421,4.75 C15.9928421,5.06621053 16.302,5.43368421 16.5467368,5.84336842 C16.6665263,6.04378947 16.6011579,6.30336842 16.4006316,6.42315789 C16.2004211,6.54294737 15.9407368,6.47757895 15.8208421,6.27705263 C15.6224211,5.94515789 15.3715789,5.64694737 15.0752632,5.39105263 C14.2229474,4.66063158 13.1013684,4.36421053 12.0001053,4.57863158 L11.8949474,4.59884211 C10.0276842,4.96336842 8.74463158,6.72694737 8.97536842,8.61357895 C9.00357895,8.84536842 8.83863158,9.05621053 8.60694737,9.08463158 C8.58947368,9.08663158 8.57221053,9.08768421 8.55505263,9.08768421" id="Fill-47" fill="#000000"></path>
            </g>
        </g>
    </g>
</svg>