<?xml version="1.0" encoding="UTF-8"?>
<svg width="40px" height="40px" viewBox="0 0 40 40" version="1.1" xmlns="http://www.w3.org/2000/svg" xmlns:xlink="http://www.w3.org/1999/xlink">
    <title>Neuronas_40x40</title>
    <g id="Neuronas_40x40" stroke="none" stroke-width="1" fill="none" fill-rule="evenodd">
        <g id="shutterstock_1664730043" transform="translate(4.000000, 6.000000)" fill="#3588FF" stroke="#000000">
            <path d="M23.6990903,26.9889921 C23.9041102,26.9889921 24.0894966,27.0731803 24.2237654,27.2086639 C24.359669,27.345797 24.4433374,27.5353513 24.4433374,27.7444961 C24.4433374,27.9536408 24.359669,28.1431951 24.2237654,28.2803282 C24.0894966,28.4158118 23.9041102,28.5 23.6990903,28.5 C23.4941228,28.5 23.3087344,28.4157682 23.1744474,28.2802663 C23.038553,28.1431424 22.9548431,27.9536185 22.9548431,27.7444961 C22.9548431,27.5353736 23.038553,27.3458497 23.1744474,27.2087258 C23.3087344,27.0732239 23.4941228,26.9889921 23.6990903,26.9889921 Z M11.0115624,1.29737722 C12.1068624,1.29737722 13.0982776,1.74582226 13.8160081,2.47019145 C14.5353972,3.19623448 14.9799719,4.19935126 14.9799719,5.30711711 L14.9799719,5.30711711 L13.546732,5.78860133 C13.0899084,5.38901253 12.560474,5.18992354 12.04482,5.16858861 C11.4310454,5.14319398 10.8311882,5.36845776 10.3756435,5.828381 C9.93164602,6.27648524 9.70922914,6.86379863 9.70917147,7.4512861 C9.70911379,8.03886924 9.93148738,8.62619889 10.375394,9.07421139 C10.8212078,9.52414879 11.4057277,9.74873203 11.9900096,9.74873203 C12.513378,9.74873203 13.036867,9.56853808 13.4606404,9.20761819 L13.4606404,9.20761819 L14.9212617,9.09620526 L14.9647683,10.5484346 L11.2446842,10.5484346 C10.8254502,10.0831067 10.2240379,9.80445091 9.57715954,9.80445091 C8.95536152,9.80445091 8.39200521,10.0586031 7.98425463,10.4701251 C7.57816289,10.879973 7.32657915,11.4460078 7.32657915,12.0712232 C7.32657915,12.696562 7.57815007,13.262555 7.98419329,13.6723539 C8.3919456,14.0838777 8.95532363,14.3379956 9.57715954,14.3379956 C10.1082893,14.3379956 10.6134117,14.1502315 11.0122822,13.8176603 L11.0122822,13.8176603 L14.3683601,13.8176603 L14.9799719,14.4350997 L14.9799719,15.0598826 L10.1466188,15.1255323 C9.73568735,14.737789 9.18885193,14.513661 8.60841355,14.513661 C7.98661554,14.513661 7.42325923,14.7678132 7.01550865,15.1793352 C6.60941691,15.5891831 6.35783317,16.1552179 6.35783317,16.7804334 C6.35783317,17.4056488 6.60941691,17.9716836 7.01550865,18.3815315 C7.42325923,18.7930536 7.98661554,19.0472057 8.60841355,19.0472057 C9.20792277,19.0472057 9.77107683,18.8076535 10.1855609,18.3976682 L10.1855609,18.3976682 L14.9799719,18.3976682 L14.9799719,19.2276564 L13.243938,19.2276564 C12.8296399,18.8187075 12.2673123,18.5798819 11.6686227,18.5798819 C11.0467019,18.5798819 10.4833874,18.8340213 10.0756856,19.2454942 C9.66959204,19.6553439 9.41804233,20.2214007 9.41804233,20.8466542 C9.41804233,21.4719077 9.66959204,22.0379646 10.0756856,22.4478143 C10.4833874,22.8592871 11.0467019,23.1134265 11.6686227,23.1134265 C12.25135,23.1134265 12.800331,22.8874566 13.2120096,22.4966303 L13.2120096,22.4966303 L14.9799719,22.4966303 L14.9799719,24.2054106 C14.9799719,25.3131764 14.5353972,26.3162932 13.8160081,27.0423362 C13.0982776,27.7667054 12.1068624,28.2151505 11.0115624,28.2151505 C10.2057303,28.2151505 9.45610732,27.9725893 8.83044967,27.5557408 C8.18382285,27.1249214 7.66938092,26.5083716 7.36139064,25.781413 C5.78867605,25.476688 4.78828516,25.0301945 4.06536721,24.3069323 C3.33972792,23.5809473 2.89391556,22.5766042 2.89391556,21.4672283 C2.89391556,20.6749673 3.12117831,19.9363631 3.51393028,19.3143371 C3.64368898,19.1088301 3.79270252,18.9141615 3.95970998,18.7333166 C3.71914828,18.7020851 3.48033377,18.6485269 3.24641944,18.5721111 C2.43924752,18.3084218 1.74566175,17.7906027 1.25735597,17.1127382 C0.780760011,16.4511293 0.5,15.6367794 0.5,14.7562638 C0.5,13.8757482 0.780760011,13.0613984 1.25735597,12.3997895 C1.74566175,11.721925 2.43924752,11.2041059 3.24641944,10.9404166 C3.48038304,10.8639847 3.71924887,10.81042 3.95983166,10.7791306 C3.79266954,10.5983048 3.64366501,10.4036596 3.51393028,10.1981905 C3.12117831,9.57616454 2.89391556,8.8373363 2.89391556,8.04529941 C2.89391556,6.93740432 3.33843232,5.93421003 4.0577806,5.20812706 C4.77544654,4.48374219 5.76679253,4.03530766 6.86207548,4.03530766 C7.64618126,3.00811354 8.17304103,2.38740661 8.8290968,1.95452537 C9.45845059,1.53926272 10.2069542,1.29737722 11.0115624,1.29737722 Z M26.8880663,25.191997 C27.0929825,25.191997 27.2782924,25.2761967 27.4125152,25.4116609 C27.5483965,25.548799 27.6320639,25.7383546 27.6320639,25.947501 C27.6320639,26.1567527 27.5484073,26.3463849 27.4125074,26.4835693 C27.2782895,26.6190558 27.092981,26.7032568 26.8880663,26.7032568 C26.6831004,26.7032568 26.4977134,26.6190237 26.3634313,26.4834995 C26.2275182,26.3463293 26.1438191,26.1567287 26.1438191,25.947501 C26.1438191,25.7383785 26.227529,25.5488546 26.3634235,25.4117307 C26.4977104,25.2762288 26.6830989,25.191997 26.8880663,25.191997 Z M19.9451372,24.7809675 C20.1500752,24.7809675 20.3354154,24.8651252 20.4696474,25.0005988 C20.6055102,25.1377182 20.6891348,25.3272711 20.6891348,25.5364714 C20.6891348,25.7456178 20.6054674,25.9351734 20.4695861,26.0723115 C20.3353634,26.2077757 20.1500534,26.2919753 19.9451372,26.2919753 C19.7401173,26.2919753 19.5547309,26.2077871 19.4204621,26.0723036 C19.2845585,25.9351704 19.2008901,25.7456161 19.2008901,25.5364714 C19.2008901,25.3272728 19.2845157,25.1377212 19.4204008,25.0006067 C19.5546788,24.8651138 19.7400955,24.7809675 19.9451372,24.7809675 Z M24.0148701,22.7505467 C24.2251023,22.6870337 24.2784145,22.7115778 24.3170875,22.7506085 C24.3574014,22.7912953 24.3819486,22.8476126 24.3819486,22.9096096 C24.3819486,22.9715827 24.3573456,23.0278858 24.3170262,23.0685781 C24.2783656,23.1075963 24.2250875,23.1321855 24.1659949,23.1321855 C24.1068801,23.1321855 24.053587,23.1076532 24.0149314,23.06864 C23.9745997,23.0279353 23.9500412,22.9715982 23.9500412,22.9096096 C23.9500412,22.8475971 23.9745439,22.7912458 24.0148701,22.7505467 Z M28.2882811,21.1952885 C28.4932777,21.1952885 28.6786323,21.2795199 28.812887,21.4150164 C28.9488277,21.5522146 29.0325282,21.7418482 29.0325282,21.9510443 C29.0325282,22.1601891 28.9488598,22.3497434 28.8129562,22.4868765 C28.6786873,22.6223601 28.493301,22.7065483 28.2882811,22.7065483 C28.0833648,22.7065483 27.8980549,22.6223487 27.7638322,22.4868844 C27.6279509,22.3497463 27.5442835,22.1601907 27.5442835,21.9510443 C27.5442835,21.7418465 27.6279829,21.5522116 27.7639013,21.4150085 C27.89811,21.2795314 28.0833882,21.1952885 28.2882811,21.1952885 Z M26.5512545,14.7113187 C26.7527238,14.6839664 26.9387281,14.7551576 27.0796491,14.8973822 C27.2264316,15.0455223 27.2994162,15.2398128 27.2994162,15.4339148 C27.2994162,15.6280827 27.2263867,15.8224655 27.0797395,15.9705453 C26.934626,16.1169258 26.744571,16.1905206 26.5543268,16.1905206 C26.3172958,16.1905206 26.0805992,16.0762672 25.9308874,15.8492425 L25.9308874,15.8492425 L22.7332771,15.4744706 L18.4560199,19.7912993 L17.2905695,20.9558947 L12.3757803,20.9558947 C12.3424787,21.1780015 12.2097223,21.3680431 12.0242225,21.4765617 C11.4717968,21.572691 11.2937974,21.4917566 11.1648551,21.3616217 C11.0342542,21.2298128 10.9538222,21.047635 10.9538222,20.8466542 C10.9538222,20.6456735 11.0342542,20.4634957 11.1648551,20.3316867 C11.2937974,20.2015518 11.4717968,20.1206175 11.6686227,20.1206175 C12.2224583,20.3364965 12.3549755,20.5365938 12.3793961,20.7683708 L12.3793961,20.7683708 L17.2186555,20.7686562 L21.0139265,16.9380189 L21.4714709,16.4764859 L22.6366659,15.3119241 L25.7058779,15.3119241 C25.9774356,14.9577111 26.2683735,14.7497239 26.5512545,14.7113187 Z M22.8380009,19.9589708 C23.0482332,19.8954579 23.1015453,19.920002 23.1402183,19.9590327 C23.1805322,19.9997195 23.2050794,20.0560368 23.2050794,20.1180338 C23.2050794,20.1800308 23.1805322,20.2363481 23.1402183,20.2770349 C23.1015453,20.3160656 23.0482332,20.3406097 22.9891257,20.3406097 C22.9299962,20.3406097 22.876669,20.3161225 22.8380009,20.2770967 C22.7976747,20.2363976 22.7731721,20.1800463 22.7731721,20.1180338 C22.7731721,20.0560212 22.7976747,19.99967 22.8380009,19.9589708 Z M31.2237162,17.7403231 C31.4286324,17.7403231 31.6139423,17.8245227 31.7481651,17.9599869 C31.8840463,18.097125 31.9677138,18.2866806 31.9677138,18.495827 C31.9677138,18.7049734 31.8840463,18.894529 31.7481651,19.0316671 C31.6139423,19.1671313 31.4286324,19.2513309 31.2237162,19.2513309 C31.0186962,19.2513309 30.8333099,19.1671427 30.6990411,19.0316592 C30.5631374,18.894526 30.479469,18.7049717 30.479469,18.495827 C30.479469,18.2866823 30.5631374,18.097128 30.6990411,17.9599948 C30.8333099,17.8245113 31.0186962,17.7403231 31.2237162,17.7403231 Z M26.9849923,18.4105579 C27.1952468,18.347045 27.248574,18.3715322 27.287242,18.4105579 C27.3275682,18.4512571 27.3520709,18.5076084 27.3520709,18.5696209 C27.3520709,18.63171 27.3275229,18.6881422 27.2871469,18.7289059 C27.2485013,18.7679224 27.195219,18.7924487 27.1361172,18.7924487 C27.0770154,18.7924487 27.023733,18.7679224 26.9850875,18.7289059 C26.9447115,18.6881422 26.9201635,18.63171 26.9201635,18.5696209 C26.9201635,18.5076084 26.9446661,18.4512571 26.9849923,18.4105579 Z M11.9899472,6.69472187 C12.2296551,6.69472187 12.469044,6.81167014 12.6186047,7.04385602 L12.6186047,7.04385602 L15.8897087,7.3127692 L19.7528371,11.2113858 L20.4630506,11.9284858 L23.2198314,11.9284858 C23.4849283,11.5840921 23.7758507,11.3829117 24.05946,11.3485537 C24.2642544,11.3237437 24.4547903,11.3964666 24.5991404,11.5421518 C24.749485,11.693887 24.8240112,11.8929152 24.8234076,12.0946534 C24.8240108,12.2932372 24.7495868,12.4921811 24.5990511,12.643956 C24.4513194,12.7931298 24.2577154,12.8680946 24.0638985,12.8680946 C23.8214011,12.8680946 23.5791954,12.7507522 23.4266153,12.5176305 L23.4266153,12.5176305 L20.4830496,12.2375907 L19.752926,12.974794 L15.9063752,16.8566807 L9.31943533,16.8566807 C9.29539213,17.0891941 9.16294866,17.2899237 8.9734422,17.4047594 C8.41158767,17.5064701 8.23358821,17.4255357 8.10464596,17.2954008 C7.97404501,17.1635919 7.89361308,16.9814141 7.89361308,16.7804334 C7.89361308,16.5794526 7.97404501,16.3972748 8.10464596,16.2654659 C8.23358821,16.135331 8.41158767,16.0543966 8.60841355,16.0543966 C9.14875843,16.2582337 9.28125522,16.4476039 9.3147618,16.6691634 L9.3147618,16.6691634 L15.8359025,16.6694386 L17.5977858,14.8912588 L15.0071494,12.2766605 L10.263186,12.2769431 C10.1767592,12.5755877 9.90304891,12.79726 9.57715954,12.79726 C9.38038569,12.79726 9.20246479,12.7163582 9.07358673,12.5862614 C8.94299825,12.454438 8.86260861,12.2722281 8.86260861,12.0712232 C8.86260861,11.8702707 8.94296579,11.6881401 9.07351671,11.5563817 C9.20240918,11.426297 9.38036223,11.3454384 9.57715954,11.3454384 C10.1682097,11.5966521 10.2981272,11.8279744 10.2914484,12.089422 L10.2914484,12.089422 L15.0776166,12.089422 L17.7256558,14.7619542 L20.3700056,12.0931456 L15.8359203,7.51683964 L12.8651944,7.51683964 C12.5770957,7.89654617 12.2792542,8.11998673 11.9912879,8.16668989 C11.7889135,8.19951152 11.6043873,8.12891552 11.4649023,7.98814039 C11.3180422,7.83984582 11.2449514,7.64541874 11.2449514,7.45120389 C11.2449514,7.25717638 11.3179211,7.06296855 11.4649023,6.91470385 C11.6098706,6.76831959 11.7997954,6.69472187 11.9899472,6.69472187 Z M31.632359,14.0869714 C32.1309008,13.9367884 32.2575247,13.9944463 32.3492631,14.0870333 C32.4426357,14.1812694 32.5,14.3115673 32.5,14.4552955 C32.5,14.5989793 32.4425887,14.7292745 32.3492018,14.8235252 C32.2574736,14.9161018 32.1308813,14.9738026 31.9908272,14.9738026 C31.8507303,14.9738026 31.7241346,14.9161496 31.6324204,14.8235871 C31.5390233,14.7293261 31.4816544,14.5989994 31.4816544,14.4552955 C31.4816544,14.3115472 31.5389764,14.1812178 31.632359,14.0869714 Z M31.2237162,9.70937948 C31.4286091,9.70937948 31.6138873,9.79362229 31.7480959,9.92909945 C31.8840143,10.0663026 31.9677138,10.2559374 31.9677138,10.4651353 C31.9677138,10.6743331 31.8840143,10.863968 31.7480959,11.0011711 C31.6138873,11.1366482 31.4286091,11.2208911 31.2237162,11.2208911 C31.0187195,11.2208911 30.8333649,11.1366597 30.6991102,11.0011632 C30.5631695,10.863965 30.479469,10.6743314 30.479469,10.4651353 C30.479469,10.2559391 30.5631695,10.0663055 30.6991102,9.92910736 C30.8333649,9.79361088 31.0187195,9.70937948 31.2237162,9.70937948 Z M26.9042297,9.58110646 C27.1146057,9.51746494 27.1678838,9.54205413 27.2065444,9.5810723 C27.2468638,9.62176464 27.2714668,9.67806774 27.2714668,9.74004082 C27.2714668,9.80211437 27.2468743,9.85851262 27.2065105,9.89926387 C27.1678601,9.93828543 27.1145927,9.96286856 27.0555131,9.96286856 C26.996335,9.96286856 26.9429726,9.93829685 26.9042635,9.89922971 C26.8638959,9.85848873 26.8393099,9.80210111 26.8393099,9.74004082 C26.8393099,9.678081 26.8639064,9.62178853 26.9042297,9.58110646 Z M28.2882811,6.7697121 C28.493301,6.7697121 28.6786873,6.85390031 28.8129562,6.98938387 C28.9488598,7.12651701 29.0325282,7.31607129 29.0325282,7.52521603 C29.0325282,7.73446608 28.9488706,7.924097 28.8129483,8.06127648 C28.6786844,8.19678227 28.4932995,8.28097182 28.2882811,8.28097182 C28.0833664,8.28097182 27.8980579,8.19677087 27.76384,8.06128439 C27.6279401,7.92409993 27.5442835,7.73446774 27.5442835,7.52521603 C27.5442835,7.31606964 27.6279509,7.12651408 27.7638322,6.98937596 C27.8980549,6.85391171 28.0833648,6.7697121 28.2882811,6.7697121 Z M22.8753318,6.52944114 C23.0802989,6.52944114 23.2656054,6.61359852 23.3998051,6.74906667 C23.5357142,6.88626036 23.6193294,7.07592293 23.6193294,7.28519693 C23.6193294,7.49436561 23.5357034,7.68395153 23.399813,7.82109888 C23.2656083,7.95654482 23.0803005,8.04070086 22.8753318,8.04070086 C22.6703643,8.04070086 22.4849759,7.95646909 22.3506889,7.8209672 C22.2147945,7.6838433 22.1310846,7.49431938 22.1310846,7.28519693 C22.1310846,7.07596918 22.2147837,6.88636862 22.3506968,6.74919838 C22.4849789,6.61367425 22.6703659,6.52944114 22.8753318,6.52944114 Z M19.9451372,2.94426593 C20.1500301,2.94426593 20.3353083,3.02850874 20.469517,3.1639859 C20.6054354,3.30118902 20.6891348,3.49082389 20.6891348,3.70002171 C20.6891348,3.90916811 20.6054674,4.09872367 20.4695861,4.23586178 C20.3353634,4.37132604 20.1500534,4.45552564 19.9451372,4.45552564 C19.7401173,4.45552564 19.5547309,4.37133744 19.4204621,4.23585387 C19.2845585,4.09872074 19.2008901,3.90916645 19.2008901,3.70002171 C19.2008901,3.49082555 19.2845905,3.30119195 19.4205313,3.16399381 C19.554786,3.02849733 19.7401406,2.94426593 19.9451372,2.94426593 Z M26.8880663,2.94426593 C27.0929592,2.94426593 27.2782374,3.02850874 27.412446,3.1639859 C27.5483645,3.30118902 27.6320639,3.49082389 27.6320639,3.70002171 C27.6320639,3.90916811 27.5483965,4.09872367 27.4125152,4.23586178 C27.2782924,4.37132604 27.0929825,4.45552564 26.8880663,4.45552564 C26.6830989,4.45552564 26.4977104,4.37129388 26.3634235,4.23579198 C26.227529,4.09866808 26.1438191,3.90914417 26.1438191,3.70002171 C26.1438191,3.49084784 26.227561,3.30124461 26.3634926,3.16405571 C26.4977655,3.0285409 26.6831222,2.94426593 26.8880663,2.94426593 Z M23.6990903,0.5 C23.9041102,0.5 24.0894966,0.584188205 24.2237654,0.71967177 C24.359669,0.856804905 24.4433374,1.04635919 24.4433374,1.25550393 C24.4433374,1.46475397 24.3596798,1.6543849 24.2237575,1.79156438 C24.0894936,1.92707017 23.9041087,2.01125972 23.6990903,2.01125972 C23.4941244,2.01125972 23.3087374,1.9270266 23.1744553,1.79150248 C23.0385422,1.65433223 22.9548431,1.46473168 22.9548431,1.25550393 C22.9548431,1.04638148 23.038553,0.85685756 23.1744474,0.719733657 C23.3087344,0.584231767 23.4941228,0.5 23.6990903,0.5 L23.6990903,0.5 Z" id="Fill-5"></path>
        </g>
    </g>
</svg>