<?xml version="1.0" encoding="UTF-8"?>
<svg width="40px" height="40px" viewBox="0 0 40 40" version="1.1" xmlns="http://www.w3.org/2000/svg" xmlns:xlink="http://www.w3.org/1999/xlink">
    <title>Robots_40x40</title>
    <defs>
        <path d="M31.1331845,15.5901442 C31.1331845,7.0202881 24.1857284,0.0743680011 15.6166402,0.0743680011 C7.04793611,0.0743680011 0.100480001,7.0202881 0.100480001,15.5901442 C0.100480001,24.1596164 7.04793611,31.1064325 15.6166402,31.1064325 C24.1857284,31.1064325 31.1331845,24.1596164 31.1331845,15.5901442" id="path-1"></path>
    </defs>
    <g id="Robots_40x40" stroke="none" stroke-width="1" fill="none" fill-rule="evenodd">
        <g id="shutterstock_726231742" transform="translate(3.000000, 1.000000)">
            <path d="M31.9515525,20.4571523 C30.7027845,11.9788162 22.8172164,6.11936011 14.3396482,7.36800012 C5.8623361,8.61664014 0.00134401492,16.5008003 1.25011203,24.9790084 C2.49888005,33.4573445 10.3843202,39.3173126 18.8616323,38.0689286 C27.3392004,36.8202886 33.2003205,28.9352324 31.9515525,20.4571523" id="Fill-4" fill="#DB3839"></path>
            <path d="M15.9114883,23.4239364 C14.7907202,23.4239364 13.8733442,24.2659204 13.8733442,23.4450564 L13.8733442,20.1810563 C13.8733442,19.3594243 14.7907202,19.6437123 15.9114883,19.6437123 C17.0323843,19.6437123 18.9736323,19.3594243 18.9736323,20.1810563 L18.9736323,23.4239364 C18.9736323,24.2446724 17.0323843,23.4239364 15.9114883,23.4239364" id="Fill-5" fill="#D5DAD9"></path>
            <path d="M18.8053123,20.1810563 C18.8053123,19.6457603 15.7078402,19.7321603 15.2417922,19.7321603 C14.7757442,19.7321603 14.3962242,19.6457603 14.3962242,20.1810563 L14.3962242,23.3464964 C14.3962242,23.8810244 14.7757442,23.4450564 15.2417922,23.4450564 C15.7078402,23.4450564 18.8053123,24.0430724 18.8053123,23.5086724 L18.8053123,20.1810563 Z M13.3505922,23.4239364 L13.3505922,20.1810563 C13.3505922,19.0693763 14.1983362,19.5962243 15.2417922,19.5962243 C16.2843523,19.5962243 19.8510723,19.0693763 19.8510723,20.1810563 L19.8510723,23.0849924 C19.8510723,24.1966724 16.2843523,23.4450564 15.2417922,23.4450564 C14.1983362,23.4450564 13.3505922,23.8692484 13.3505922,23.4239364 L13.3505922,23.4239364 Z" id="Fill-6" fill="#141516"></path>
            <polygon id="Fill-7" fill="#B0B7BE" points="14.3962242 20.9230723 18.8000643 20.9230723 18.8000643 20.4149123 14.3962242 20.4149123"></polygon>
            <g id="Group-13" transform="translate(0.984000, 7.128000)">
                <mask id="mask-2" fill="white">
                    <use xlink:href="#path-1"></use>
                </mask>
                <g id="Clip-9"></g>
                <path d="M28.2700804,29.2669444 C28.2700804,30.0878084 27.5982084,30.7600645 26.7774724,30.7600645 L4.45606407,30.7600645 C3.63532805,30.7600645 2.96358404,30.0878084 2.96358404,29.2669444 L2.96358404,17.7117443 C2.96358404,16.8901123 3.63532805,16.2184962 4.45606407,16.2184962 L26.7774724,16.2184962 C27.5982084,16.2184962 28.2700804,16.8901123 28.2700804,17.7117443 L28.2700804,29.2669444" id="Fill-8" fill="#D5DAD9" mask="url(#mask-2)"></path>
                <path d="M26.7774724,16.2184962 L24.2362884,16.2184962 C25.0570244,16.2184962 25.7288964,16.8901123 25.7288964,17.7117443 L25.7288964,29.2669444 C25.7288964,30.0878084 25.0570244,30.7600645 24.2362884,30.7600645 L26.7774724,30.7600645 C27.5982084,30.7600645 28.2700804,30.0878084 28.2700804,29.2669444 L28.2700804,17.7117443 C28.2700804,16.8901123 27.5982084,16.2184962 26.7774724,16.2184962" id="Fill-10" fill="#B0B7BE" mask="url(#mask-2)"></path>
                <path d="M5.50489608,29.2669444 L5.50489608,17.7117443 C5.50489608,16.8901123 6.17651209,16.2184962 6.9973761,16.2184962 L4.45606407,16.2184962 C3.63532805,16.2184962 2.96358404,16.8901123 2.96358404,17.7117443 L2.96358404,29.2669444 C2.96358404,30.0878084 3.63532805,30.7600645 4.45606407,30.7600645 L6.9973761,30.7600645 C6.17651209,30.7600645 5.50489608,30.0878084 5.50489608,29.2669444" id="Fill-11" fill="#B0B7BE" mask="url(#mask-2)"></path>
                <path d="M4.45606407,16.7412482 C3.92166406,16.7412482 3.48646405,17.1763203 3.48646405,17.7117443 L3.48646405,29.6058884 C3.48646405,30.1404164 3.92166406,30.5754885 4.45606407,30.5754885 L26.7774724,30.5754885 C27.3118724,30.5754885 27.7466884,30.1404164 27.7466884,29.6058884 L27.7466884,17.7117443 C27.7466884,17.1763203 27.3118724,16.7412482 26.7774724,16.7412482 L4.45606407,16.7412482 Z M26.7774724,30.9442565 L4.45606407,30.9442565 C3.34425605,30.9442565 2.44083204,30.0398084 2.44083204,28.9281284 L2.44083204,17.7117443 C2.44083204,16.6000642 3.34425605,15.6954882 4.45606407,15.6954882 L26.7774724,15.6954882 C27.8885124,15.6954882 28.7928324,16.6000642 28.7928324,17.7117443 L28.7928324,28.9281284 C28.7928324,30.0398084 27.8885124,30.9442565 26.7774724,30.9442565 L26.7774724,30.9442565 Z" id="Fill-12" fill="#141516" mask="url(#mask-2)"></path>
            </g>
            <path d="M32.0154245,25.0377604 C31.9957125,25.0377604 31.9757445,25.0366084 31.9557765,25.0341764 C31.6768645,25.0016644 31.4773125,24.7492484 31.5099525,24.4704644 C31.6026245,23.6780164 31.6316805,22.8714884 31.5963525,22.0735363 C31.5840645,21.7930883 31.8011525,21.5556483 32.0816005,21.5432323 C32.3694725,21.5319683 32.5994885,21.7482883 32.6119045,22.0284803 C32.6496645,22.8807044 32.6185605,23.7420164 32.5194885,24.5884804 C32.4892805,24.8472964 32.2697605,25.0377604 32.0154245,25.0377604" id="Fill-14" fill="#141516"></path>
            <path d="M16.5904003,38.7440006 C8.77817615,38.7448966 1.91878404,33.0074245 0.747328026,25.0529924 C0.398400021,22.6840964 0.572640646,20.3300483 1.26547203,18.0561283 C1.34739203,17.7874563 1.63193604,17.6364163 1.89984004,17.7180803 C2.16825605,17.7998723 2.31968005,18.0839043 2.23801605,18.3524483 C1.58931204,20.4812163 1.42611204,22.6858884 1.75289604,24.9050244 C2.95878406,33.0920325 10.6000002,38.7716486 18.7875203,37.5660166 C24.4790404,36.7277446 29.2525445,32.6318725 30.9488005,27.1314564 C31.0314885,26.8634244 31.3169285,26.7131524 31.5841925,26.7955844 C31.8526085,26.8784004 32.0030085,27.1626884 31.9201925,27.4311044 C30.1091205,33.3037445 25.0124164,37.6767366 18.9357443,38.5715846 C18.1482883,38.6878086 17.3639043,38.7440006 16.5904003,38.7440006" id="Fill-15" fill="#141516"></path>
            <path d="M31.6936325,19.6250243 C31.4634885,19.6250243 31.2549765,19.4677123 31.1996805,19.2341123 C30.9159045,18.0385923 30.4862085,16.8821123 29.9223685,15.7968003 C29.7929605,15.5478402 29.8899845,15.2408962 30.1390725,15.1116162 C30.3877765,14.9822082 30.6949765,15.0791042 30.8243845,15.3281922 C31.4266245,16.4876163 31.8857605,17.7226883 32.1886085,18.9993603 C32.2535045,19.2725123 32.0846725,19.5463043 31.8113925,19.6112003 C31.7719685,19.6206723 31.7325445,19.6250243 31.6936325,19.6250243" id="Fill-16" fill="#141516"></path>
            <path d="M1.82214404,18.4901763 C1.76774404,18.4901763 1.71244804,18.4812163 1.65804804,18.4626563 C1.39232004,18.3720323 1.25062403,18.0832643 1.34124803,17.8175363 C1.35481604,17.7777283 1.67916804,16.8306563 2.14035205,15.7980803 C2.25491205,15.5418242 2.55545605,15.4270082 2.81171206,15.5413122 C3.06796806,15.6558722 3.18304006,15.9565443 3.06848006,16.2128003 C2.62598405,17.2032643 2.30649605,18.1363843 2.30316805,18.1458563 C2.23123205,18.3570563 2.03360005,18.4901763 1.82214404,18.4901763" id="Fill-17" fill="#141516"></path>
            <path d="M5.6428161,8.69369614 L3.48537607,8.69369614 C2.78099206,8.69369614 2.20473605,9.27046415 2.20473605,9.97497616 L2.20473605,14.5921922 C2.20473605,15.2964482 2.78099206,15.8729603 3.48537607,15.8729603 L5.6428161,15.8729603 L5.6428161,8.69369614" id="Fill-18" fill="#D5DAD9"></path>
            <path d="M3.22118406,14.5921922 L3.22118406,9.97497616 C3.22118406,9.27046415 3.79744007,8.69369614 4.50195208,8.69369614 L3.48537607,8.69369614 C2.78099206,8.69369614 2.20473605,9.27046415 2.20473605,9.97497616 L2.20473605,14.5921922 C2.20473605,15.2964482 2.78099206,15.8729603 3.48537607,15.8729603 L4.50195208,15.8729603 C3.79744007,15.8729603 3.22118406,15.2964482 3.22118406,14.5921922" id="Fill-19" fill="#B0B7BE"></path>
            <path d="M29.7173125,8.69369614 L27.5597444,8.69369614 L27.5597444,15.8729603 L29.7173125,15.8729603 C30.4214405,15.8729603 30.9971845,15.2964482 30.9971845,14.5921922 L30.9971845,9.97497616 C30.9971845,9.27046415 30.4214405,8.69369614 29.7173125,8.69369614" id="Fill-20" fill="#D5DAD9"></path>
            <path d="M29.7173125,8.69369614 L28.7007364,8.69369614 C29.4049925,8.69369614 29.9806085,9.27046415 29.9806085,9.97497616 L29.9806085,14.5921922 C29.9806085,15.2964482 29.4049925,15.8729603 28.7007364,15.8729603 L29.7173125,15.8729603 C30.4214405,15.8729603 30.9971845,15.2964482 30.9971845,14.5921922 L30.9971845,9.97497616 C30.9971845,9.27046415 30.4214405,8.69369614 29.7173125,8.69369614" id="Fill-21" fill="#B0B7BE"></path>
            <path d="M5.6933761,15.3499522 L3.48537607,15.3499522 C3.06732806,15.3499522 2.72736006,15.0103682 2.72736006,14.5921922 L2.72736006,9.97497616 C2.72736006,9.55667216 3.06732806,9.21696015 3.48537607,9.21696015 L5.6933761,9.21696015 L5.6933761,8.17043214 L3.48537607,8.17043214 C2.49068805,8.17043214 1.68172804,8.97990415 1.68172804,9.97497616 L1.68172804,14.5921922 C1.68172804,15.5866242 2.49068805,16.3957123 3.48537607,16.3957123 L5.6933761,16.3957123 L5.6933761,15.3499522" id="Fill-22" fill="#141516"></path>
            <polygon id="Fill-23" fill="#141516" points="3.71104007 8.69369614 4.75667209 8.69369614 4.75667209 2.80108806 3.71104007 2.80108806"></polygon>
            <path d="M5.5044481,2.12307205 C5.5044481,1.42137604 4.93574409,0.852544028 4.23392008,0.852544028 C3.53222407,0.852544028 2.96326406,1.42137604 2.96326406,2.12307205 C2.96326406,2.82489606 3.53222407,3.39321607 4.23392008,3.39321607 C4.93574409,3.39321607 5.5044481,2.82489606 5.5044481,2.12307205" id="Fill-24" fill="#D5DAD9"></path>
            <path d="M4.23392008,1.36083204 C3.81344007,1.36083204 3.47155207,1.70284804 3.47155207,2.12307205 C3.47155207,2.54316805 3.81344007,2.88492806 4.23392008,2.88492806 C4.65427208,2.88492806 4.99628809,2.54316805 4.99628809,2.12307205 C4.99628809,1.70284804 4.65427208,1.36083204 4.23392008,1.36083204 Z M4.23392008,3.90137607 C3.25305606,3.90137607 2.45497605,3.10368006 2.45497605,2.12307205 C2.45497605,1.14220803 3.25305606,0.34425602 4.23392008,0.34425602 C5.21478409,0.34425602 6.0127361,1.14220803 6.0127361,2.12307205 C6.0127361,3.10368006 5.21478409,3.90137607 4.23392008,3.90137607 L4.23392008,3.90137607 Z" id="Fill-25" fill="#141516"></path>
            <polygon id="Fill-26" fill="#141516" points="28.4456324 8.69369614 29.4912645 8.69369614 29.4912645 2.80108806 28.4456324 2.80108806"></polygon>
            <path d="M27.6977284,2.12307205 C27.6977284,1.42112004 28.2666884,0.852288028 28.9687684,0.852288028 C29.6704645,0.852288028 30.2384005,1.42112004 30.2384005,2.12307205 C30.2384005,2.82502406 29.6704645,3.39347207 28.9687684,3.39347207 C28.2666884,3.39347207 27.6977284,2.82502406 27.6977284,2.12307205" id="Fill-27" fill="#D5DAD9"></path>
            <path d="M28.9687684,1.36044804 C28.5481604,1.36044804 28.2060164,1.70259204 28.2060164,2.12307205 C28.2060164,2.54329605 28.5481604,2.88531206 28.9687684,2.88531206 C29.3886085,2.88531206 29.7301125,2.54329605 29.7301125,2.12307205 C29.7301125,1.70259204 29.3886085,1.36044804 28.9687684,1.36044804 Z M28.9687684,3.90176007 C27.9876484,3.90176007 27.1894404,3.10380806 27.1894404,2.12307205 C27.1894404,1.14208003 27.9876484,0.34400002 28.9687684,0.34400002 C29.9489925,0.34400002 30.7466885,1.14208003 30.7466885,2.12307205 C30.7466885,3.10380806 29.9489925,3.90176007 28.9687684,3.90176007 L28.9687684,3.90176007 Z" id="Fill-28" fill="#141516"></path>
            <path d="M27.5597444,17.1900803 C27.5597444,18.6865283 26.3349124,19.9114883 24.8376964,19.9114883 L8.36396814,19.9114883 C6.86675212,19.9114883 5.6428161,18.6865283 5.6428161,17.1900803 L5.6428161,7.37721612 C5.6428161,5.8801281 6.86675212,4.65516808 8.36396814,4.65516808 L24.8376964,4.65516808 C26.3349124,4.65516808 27.5597444,5.8801281 27.5597444,7.37721612 L27.5597444,17.1900803" id="Fill-29" fill="#D5DAD9"></path>
            <path d="M24.8376964,4.65516808 L23.1434884,4.65516808 C24.6405764,4.65516808 25.8656644,5.8801281 25.8656644,7.37721612 L25.8656644,17.1900803 C25.8656644,18.6865283 24.6405764,19.9114883 23.1434884,19.9114883 L24.8376964,19.9114883 C26.3349124,19.9114883 27.5597444,18.6865283 27.5597444,17.1900803 L27.5597444,7.37721612 C27.5597444,5.8801281 26.3349124,4.65516808 24.8376964,4.65516808" id="Fill-30" fill="#B0B7BE"></path>
            <path d="M7.33702412,17.1900803 L7.33702412,7.37721612 C7.33702412,5.8801281 8.56096014,4.65516808 10.0580482,4.65516808 L8.36396814,4.65516808 C6.86675212,4.65516808 5.6428161,5.8801281 5.6428161,7.37721612 L5.6428161,17.1900803 C5.6428161,18.6865283 6.86675212,19.9114883 8.36396814,19.9114883 L10.0580482,19.9114883 C8.56096014,19.9114883 7.33702412,18.6865283 7.33702412,17.1900803" id="Fill-31" fill="#B0B7BE"></path>
            <path d="M14.2559362,5.16345609 L11.6728962,5.16345609 C11.3920642,5.16345609 11.1646082,4.93600009 11.1646082,4.65516808 C11.1646082,4.37459208 11.3920642,4.14688008 11.6728962,4.14688008 L14.2559362,4.14688008 C14.5366402,4.14688008 14.7642242,4.37459208 14.7642242,4.65516808 C14.7642242,4.93600009 14.5366402,5.16345609 14.2559362,5.16345609" id="Fill-32" fill="#141516"></path>
            <path d="M24.8376964,20.4197763 L8.36396814,20.4197763 C6.58323211,20.4197763 5.13452809,18.9708163 5.13452809,17.1900803 L5.13452809,7.37721612 C5.13452809,5.5960961 6.58323211,4.14688008 8.36396814,4.14688008 L9.30105615,4.14688008 C9.58176016,4.14688008 9.80921616,4.37459208 9.80921616,4.65516808 C9.80921616,4.93600009 9.58176016,5.16345609 9.30105615,5.16345609 L8.36396814,5.16345609 C7.14374412,5.16345609 6.15110411,6.15660811 6.15110411,7.37721612 L6.15110411,17.1900803 C6.15110411,18.4104323 7.14374412,19.4032003 8.36396814,19.4032003 L24.8376964,19.4032003 C26.0584324,19.4032003 27.0514564,18.4104323 27.0514564,17.1900803 L27.0514564,7.37721612 C27.0514564,6.15660811 26.0584324,5.16345609 24.8376964,5.16345609 L16.6277763,5.16345609 C16.3469443,5.16345609 16.1196163,4.93600009 16.1196163,4.65516808 C16.1196163,4.37459208 16.3469443,4.14688008 16.6277763,4.14688008 L24.8376964,4.14688008 C26.6188164,4.14688008 28.0680324,5.5960961 28.0680324,7.37721612 L28.0680324,17.1900803 C28.0680324,18.9708163 26.6188164,20.4197763 24.8376964,20.4197763" id="Fill-33" fill="#141516"></path>
            <path d="M12.5671042,11.2344962 C12.5671042,10.6015362 12.0526722,10.0887682 11.4206082,10.0887682 C10.7873922,10.0887682 10.2746242,10.6015362 10.2746242,11.2344962 C10.2746242,11.8674562 10.7873922,12.3807362 11.4206082,12.3807362 C12.0526722,12.3807362 12.5671042,11.8674562 12.5671042,11.2344962" id="Fill-34" fill="#D5DAD9"></path>
            <path d="M11.4206082,10.5970562 C11.0689922,10.5970562 10.7829122,10.8830082 10.7829122,11.2344962 C10.7829122,11.5862402 11.0689922,11.8724482 11.4206082,11.8724482 C11.7724802,11.8724482 12.0588162,11.5862402 12.0588162,11.2344962 C12.0588162,10.8830082 11.7724802,10.5970562 11.4206082,10.5970562 Z M11.4206082,12.8888962 C10.5084802,12.8888962 9.76646416,12.1467522 9.76646416,11.2344962 C9.76646416,10.3226242 10.5084802,9.58048016 11.4206082,9.58048016 C12.3329922,9.58048016 13.0752642,10.3226242 13.0752642,11.2344962 C13.0752642,12.1467522 12.3329922,12.8888962 11.4206082,12.8888962 L11.4206082,12.8888962 Z" id="Fill-35" fill="#141516"></path>
            <path d="M22.9280644,11.2344962 C22.9280644,10.6015362 22.4151683,10.0887682 21.7820803,10.0887682 C21.1491203,10.0887682 20.6362243,10.6015362 20.6362243,11.2344962 C20.6362243,11.8674562 21.1491203,12.3807362 21.7820803,12.3807362 C22.4151683,12.3807362 22.9280644,11.8674562 22.9280644,11.2344962" id="Fill-36" fill="#D5DAD9"></path>
            <path d="M21.7820803,10.5970562 C21.4304643,10.5970562 21.1445123,10.8830082 21.1445123,11.2344962 C21.1445123,11.5862402 21.4304643,11.8724482 21.7820803,11.8724482 C22.1335683,11.8724482 22.4197763,11.5862402 22.4197763,11.2344962 C22.4197763,10.8830082 22.1335683,10.5970562 21.7820803,10.5970562 Z M21.7820803,12.8888962 C20.8699523,12.8888962 20.1280643,12.1467522 20.1280643,11.2344962 C20.1280643,10.3226242 20.8699523,9.58048016 21.7820803,9.58048016 C22.6942084,9.58048016 23.4362244,10.3226242 23.4362244,11.2344962 C23.4362244,12.1467522 22.6942084,12.8888962 21.7820803,12.8888962 L21.7820803,12.8888962 Z" id="Fill-37" fill="#141516"></path>
            <path d="M29.7173125,8.17043214 L27.9012484,8.17043214 L27.9012484,9.21696015 L29.7173125,9.21696015 C30.1344645,9.21696015 30.4743045,9.55667216 30.4743045,9.97497616 L30.4743045,14.5921922 C30.4743045,15.0103682 30.1344645,15.3499522 29.7173125,15.3499522 L27.9012484,15.3499522 L27.9012484,16.3957123 L29.7173125,16.3957123 C30.7107205,16.3957123 31.5199365,15.5866242 31.5199365,14.5921922 L31.5199365,9.97497616 C31.5199365,8.97990415 30.7107205,8.17043214 29.7173125,8.17043214" id="Fill-38" fill="#141516"></path>
            <path d="M16.6012803,16.7885443 C15.4439042,16.7885443 14.2862722,16.3479683 13.4051202,15.4665602 C13.2064642,15.2681602 13.2064642,14.9464962 13.4051202,14.7478402 C13.6036482,14.5493122 13.9253122,14.5493122 14.1237122,14.7478402 C15.4899842,16.1139843 17.7125763,16.1139843 19.0788483,14.7478402 C19.2773763,14.5493122 19.5990403,14.5493122 19.7974403,14.7478402 C19.9960963,14.9464962 19.9960963,15.2681602 19.7974403,15.4665602 C18.9164163,16.3479683 17.7587843,16.7885443 16.6012803,16.7885443" id="Fill-39" fill="#141516"></path>
        </g>
    </g>
</svg>